
<svg viewBox="0 0 300.00366 226.6"  width="117px" height="56px" xmlns="http://www.w3.org/2000/svg"><g transform="translate(-218.59818 -184.9)"><g><path d="m264.3 272.8c0-2.8-2.5-2.6-4.5-2.6h-.9v5.3h1.2c2 .1 4.2-.1 4.2-2.7z" fill="#005aa5"/><path d="m225.7 285-2.5-11.4h-.5l-2.4 11.4z" fill="#005aa5"/><path d="m198 236.5-2.4-11.3h-.5l-2.5 11.3z" fill="#005aa5"/><path d="m260.2 283.4h-1.3v6.1h1.5c2.2 0 5.4 0 5.4-3.1s-3.4-3-5.6-3z" fill="#005aa5"/><path d="m154.1 192v170.1l42.4 42.4h170.1v-170.1l-42.4-42.4zm45.5 106.4h-24.8v-37.1h13.5v25.2h11.3zm.8-53.1h-10.2l-1.1 4.6h-14.3l12.9-37.1h14.9l13.2 37.1h-14.3zm28.9 53.1-1.2-4.6h-10.2l-1.1 4.6h-14.3l12.9-37.1h14.9l13.2 37.1zm10.7-68.6h-.4l-4.4 20.2h-11.5l-13-37.1h14l4.7 22.1h.3l5.1-22.1h10.3l5.1 22.1h.3l4.7-22.1h14l-13.2 37h-11.8zm24.8 68.6h-18.4v-37.1h15.7c7.2 0 14.5 1.7 14.5 10.3 0 3.2-1.6 6.4-4.9 7.5v.3c4 1.4 6.6 4.4 6.6 8.8 0 7.6-7.1 10.2-13.5 10.2z" fill="#005aa5"/><g fill="#fff"><path d="m147 184.9v180.1l46.5 46.5h180.1v-180l-46.5-46.5h-180.1zm219.6 219.6h-170.1l-42.4-42.4v-170.1h170.1l42.4 42.4z"/><path d="m202.7 212.8h-14.9l-12.9 37.1h14.3l1.1-4.6h10.2l1.2 4.6h14.3zm-10.1 23.7 2.5-11.3h.5l2.5 11.3z"/><path d="m199.6 286.5h-11.3v-25.2h-13.5v37.1h24.8z"/><path d="m229.7 235h-.3l-4.7-22.2h-14l13 37.1h11.5l4.4-20.1h.4l4.3 20.1h11.7l13.1-37.1h-14l-4.7 22.2h-.3l-5-22.2h-10.4z"/><path d="m271.7 279.4v-.3c3.2-1 4.9-4.2 4.9-7.5 0-8.6-7.3-10.3-14.5-10.3h-15.7v37.1h18.4c6.5 0 13.6-2.6 13.6-10.2-.1-4.5-2.6-7.4-6.7-8.8zm-12.8-9.2h.9c2 0 4.5-.2 4.5 2.6 0 2.6-2.2 2.8-4.2 2.8h-1.2zm1.5 19.3h-1.5v-6.1h1.3c2.2 0 5.6-.1 5.6 3.1 0 3-3.2 3-5.4 3z"/><path d="m215.4 261.3-12.9 37.1h14.3l1.1-4.6h10.1l1.2 4.6h14.3l-13.2-37.1zm4.9 23.7 2.5-11.3h.5l2.5 11.3z"/></g></g><g fill="#005faa"><path d="m438.1 213.4h16.9c8.6 0 14.9 4.4 14.9 13.5 0 7.5-4.7 12.2-12.1 12.2h-6.8v11.1h-12.9zm12.9 16.4h1.3c2.3 0 4.9-.4 4.9-3.4 0-2.9-2.7-3-4.9-3h-1.3z"/><path d="m486.9 238.3h11.3v11.8h-24.6v-36.7h13.3z"/><path d="m512.6 250.1h-14.1l12.8-36.7h14.7l13.1 36.7h-14.1l-1.2-4.6h-10.1zm8.8-13.3-1.6-6.5c-.4-1.6-.6-3.2-.9-4.7h-.5l-2.4 11.2z"/><path d="m548.7 213.4 4.1 9.6h.4c.4-1.2.7-2.3 1.2-3.5l2.6-6.1h15l-12.6 20.9v15.8h-13.1v-15.8l-12.8-20.9z"/><path d="m448.9 261.8 4.6 21.9h.3c.2-2.2.5-4.6 1.1-6.8l3.9-15.2h10.2l5 21.9h.3c.2-2.1.4-4.4.9-6.5l3.7-15.4h13.9l-13 36.7h-11.6l-4.2-20h-.4c-.1 1.9-.2 3.8-.7 5.6l-3.7 14.4h-11.4l-12.8-36.6z"/><path d="m495.89999 261.79999h13.3v36.700001h-13.3z"/><path d="m520.2 273.4-7.3.3v-11.9h28v11.9l-7.3-.3v25.1h-13.4z"/><path d="m557.3 274.2h8.2v-12.4h12.8v36.7h-12.8v-12.8h-8.2v12.8h-12.9v-36.7h12.9z"/><path d="m440.3 333.8.7.5c2.4 1.9 5.3 3.4 8.3 3.4 1.3 0 3.4-.5 3.4-2.2s-1.8-1.8-3-2l-2.7-.5c-5.2-.9-9.6-4-9.6-9.7 0-8.7 7.9-13.6 15.9-13.6 4.2 0 8 1 11.6 3.2l-3.6 9.4c-2.3-1.6-4.9-2.8-7.7-2.8-1.2 0-2.9.4-2.9 1.9 0 1.4 1.7 1.6 2.7 1.8l3 .7c5.7 1.3 9.7 4.3 9.7 10.5 0 8.8-8 13.1-15.9 13.1-4.6 0-10-1.3-14.1-3.4z"/><path d="m475.3 321.8-7.4.3v-11.9h28.1v11.9l-7.4-.3v25.1h-13.3z"/><path d="m511.2 310.2 4.1 9.6h.4c.4-1.2.7-2.3 1.2-3.5l2.6-6.1h15l-12.6 20.9v15.8h-13.1v-15.8l-12.8-20.9z"/><path d="m550.5 335.1h11.2v11.8h-24.6v-36.7h13.4z"/><path d="m589.8 320.2h-11.2v3.5h10.3v9.6h-10.3v3.6h11.6v10h-25.1v-36.7h24.7z"/></g></g></svg>
